# AST/ASF file generated using VICON BodyLanguage
# -----------------------------------------------
:version 1.10
:name VICON
:units
  mass 1.0
  length 0.45
  angle deg
:documentation
   .ast/.asf automatically generated from VICON data using
   VICON BodyBuilder and BodyLanguage model FoxedUp or BRILLIANT.MOD
:root
   order TX TY TZ RX RY RZ
   axis XYZ
   position 0 0 0  
   orientation 0 0 0 
:bonedata
  begin
     id 1 
     name lhipjoint
     direction 0.521689 -0.742065 0.420928 
     length 2.47002 
     axis 0 0 0  XYZ
  end
  begin
     id 2 
     name lfemur
     direction 0.34202 -0.939693 0  
     length 7.24654  
     axis 0 0 20  XYZ
    dof rx ry rz
    limits (-160.0 20.0)
           (-70.0 70.0)
           (-60.0 70.0)
  end
  begin
     id 3 
     name ltibia
     direction 0.34202 -0.939693 0   
     length 8.04849   
     axis 0 0 20   XYZ
    dof rx
    limits (-10.0 170.0)
  end
  begin
     id 4 
     name lfoot
     direction 0.0745411 -0.2048 0.975961   
     length 1.72367   
     axis -90 7.62852e-016 20   XYZ
    dof rx rz
    limits (-45.0 90.0)
           (-70.0 20.0)
  end
  begin
     id 5 
     name ltoes
     direction 1.53556e-011 -4.21901e-011 1   
     length 0.87311   
     axis -90 7.62852e-016 20   XYZ
    dof rx
    limits (-90.0 20.0)
  end
  begin
     id 6 
     name rhipjoint
     direction -0.52849 -0.738415 0.418857   
     length 2.48223  
     axis 0 0 0  XYZ 
  end
  begin
     id 7 
     name rfemur
     direction -0.34202 -0.939693 0   
     length 7.15571   
     axis 0 0 -20   XYZ
    dof rx ry rz
    limits (-160.0 20.0)
           (-70.0 70.0)
           (-70.0 60.0)
  end
  begin
     id 8 
     name rtibia
     direction -0.34202 -0.939693 0   
     length 7.81659   
     axis 0 0 -20   XYZ
    dof rx
    limits (-10.0 170.0)
 end
 begin
     id 9 
     name rfoot
     direction -0.0917348 -0.252039 0.963359   
     length 1.84382  
     axis -90 -7.62852e-016 -20   XYZ
    dof rx rz
    limits (-45.0 90.0)
           (-20.0 70.0)
  end
  begin
     id 10 
     name rtoes
     direction -1.53551e-011 -4.21879e-011 1   
     length 0.927771   
     axis -90 -7.62852e-016 -20   XYZ
    dof rx
    limits (-90.0 20.0)
  end
  begin
     id 11 
     name lowerback
     direction 0.00583058 0.999822 0.0179296   
     length 2.1429   
     axis 0 0 0   XYZ
    dof rx ry rz
    limits (-20.0 45.0)
           (-30.0 30.0)
           (-30.0 30.0)
  end
  begin
     id 12 
     name upperback
     direction -0.0137999 0.999752 -0.0175071   
     length 2.14252   
     axis 0 0 0   XYZ
    dof rx ry rz
    limits (-20.0 45.0)
           (-30.0 30.0)
           (-30.0 30.0)
  end
  begin
     id 13 
     name thorax
     direction -0.0158036 0.99955 -0.0254909   
     length 2.1383   
     axis 0 0 0   XYZ
    dof rx ry rz
    limits (-20.0 45.0)
           (-30.0 30.0)
           (-30.0 30.0)
  end
  begin
     id 14 
     name lowerneck
     direction -0.0101179 0.999403 -0.0330262   
     length 1.65808   
     axis 0 0 0   XYZ
    dof rx ry rz
    limits (-20.0 45.0)
           (-30.0 30.0)
           (-30.0 30.0)
  end
  begin
     id 15 
     name upperneck
     direction 0.0497734 0.995978 -0.074501   
     length 1.5897   
     axis 0 0 0   XYZ
    dof rx ry rz
    limits (-20.0 45.0)
           (-30.0 30.0)
           (-30.0 30.0)
  end
  begin
     id 16
     name head
     direction 0.0189524 0.999519 -0.0245438  
     length 1.74024  
     axis 0 0 0   XYZ
    dof rx ry rz
    limits (-20.0 45.0)
           (-30.0 30.0)
           (-30.0 30.0)
  end
  begin
     id 17 
     name lclavicle
     direction 0.945604 0.324422 0.0241537  
     length 3.59089  
     axis 0 0 0   XYZ
    dof ry rz
    limits (-20.0 10.0)
           (0.0 20.0)
  end
  begin
     id 18 
     name lhumerus
     direction 1 -4.48964e-011 -2.63524e-027   
     length 5.2391   
     axis 180 -30 -90   XYZ
    dof rx ry rz
    limits (-60.0 90.0)
           (-90.0 90.0)
           (-90.0 90.0)
  end
  begin
     id 19
     name lradius
     direction 1 -4.48969e-011 3.86978e-028   
     length 3.31467   
     axis 180 -30 -90   XYZ
    dof rx
    limits (-10.0 170.0)
  end
  begin
     id 20
     name lwrist
     direction 1 -4.48963e-011 7.20928e-028   
     length 1.65734   
     axis -5.52449e-016 90 90   XYZ
    dof ry
    limits (-180.0 0.0)
 end
  begin
     id 21 
     name lhand
     direction 1 -4.48964e-011 1.44186e-027   
     length 0.9659   
     axis -9.20027e-016 90 90   XYZ
    dof rx rz
    limits (-90.0 90.0)
           (-45.0 45.0)
  end
  begin
     id 22 
     name lfingers
     direction 1 -4.48965e-011 2.88371e-027   
     length 0.778733   
     axis -1.84005e-015 90 90   XYZ
    dof rx
    limits (0.0 90.0)
  end
  begin
     id 23
     name lthumb
     direction 0.707107 -6.34931e-011 0.707107   
     length 1.11811   
     axis -90 45 2.85299e-015   XYZ
    dof rx rz
    limits (-45.0 45.0)
           (-45.0 45.0)
  end
  begin
     id 24 
     name rclavicle
     direction -0.923762 0.370785 0.0958234   
     length 3.54196  
     axis 0 0 0   XYZ 
    dof ry rz
    limits (-10.0 20.0)
           (-20.0 0.0)
  end
  begin
     id 25 
     name rhumerus
     direction -1 -4.48966e-011 1.18702e-017  
     length 5.30252   
     axis 180 30 90   XYZ
    dof rx ry rz
    limits (-90.0 60.0)
           (-90.0 90.0)
           (-90.0 90.0)
  end
  begin
     id 26 
     name rradius
     direction -1 -4.48966e-011 4.46736e-027   
     length 3.67875   
     axis 180 30 90   XYZ
    dof rx
    limits (-10.0 170.0)
  end
  begin
     id 27 
     name rwrist
     direction -1 -4.48966e-011 7.20928e-028   
     length 1.83937   
     axis -5.52449e-016 -90 -90   XYZ
    dof ry
    limits (-180.0 0.0)
  end
  begin
     id 28
     name rhand
     direction -1 -4.48973e-011 1.44186e-027   
     length 0.594811   
     axis -9.20027e-016 -90 -90   XYZ
    dof rx rz
    limits (-90.0 90.0)
           (-45.0 45.0)
  end
  begin
     id 29
     name rfingers
     direction -1 -4.48963e-011 2.88371e-027   
     length 0.479552   
     axis -1.84005e-015 -90 -90   XYZ
    dof rx
    limits (0.0 90.0)
  end
  begin
     id 30
     name rthumb
     direction -0.707107 -6.34932e-011 0.707107   
     length 0.688544   
     axis -90 -45 -2.85299e-015   XYZ
    dof rx rz
    limits (-45.0 45.0)
           (-45.0 45.0)
  end
:hierarchy
  begin
    root lhipjoint rhipjoint lowerback
    lhipjoint lfemur
    lfemur ltibia
    ltibia lfoot
    lfoot ltoes
    rhipjoint rfemur
    rfemur rtibia
    rtibia rfoot
    rfoot rtoes
    lowerback upperback
    upperback thorax
    thorax lowerneck lclavicle rclavicle
    lowerneck upperneck
    upperneck head
    lclavicle lhumerus
    lhumerus lradius
    lradius lwrist
    lwrist lhand lthumb
    lhand lfingers
    rclavicle rhumerus
    rhumerus rradius
    rradius rwrist
    rwrist rhand rthumb
    rhand rfingers
  end

#!OML:ASF E:\acrobat2\Project_11_07_03\Capture day 1\Session 1\Acrobat.ASF
:FULLY-SPECIFIED
:DEGREES
360
root 10.5342 17.407 9.40803 -26.47 0.110818 -9.12869
lowerback 0.985271 1.89829 4.87169
upperback 3.11462 2.4102 5.15689
thorax 2.64132 1.26136 2.62769
lowerneck 8.73868 -7.81346 -8.6124
upperneck -4.5637 -10.2814 26.2076
head -0.915363 -5.87181 9.87657
rclavicle -2.93238e-014 -4.96465e-014
rhumerus -44.2201 -12.4809 -62.4671
rradius 31.8953
rwrist -2.37129
rhand -8.79081 -51.899
rfingers 7.12502
rthumb 17.1478 -81.1623
lclavicle -2.93238e-014 -4.96465e-014
lhumerus -33.1168 35.2757 20.8486
lradius 66.6855
lwrist 209.819
lhand -8.91226 20.5688
lfingers 7.12502
lthumb 17.0309 49.8423
rfemur -15.5744 -20.4497 15.2487
rtibia 96.1861
rfoot -29.8676 -2.368
rtoes -9.62457
lfemur -27.6073 8.95018 -13.0434
ltibia 54.9777
lfoot -5.06409 -13.8699
ltoes 6.29919
361
root 10.5286 17.2517 9.60695 -29.7299 1.4131 -9.07677
lowerback 1.75167 0.92299 4.05128
upperback 3.74766 1.12404 5.36588
thorax 2.85633 0.598632 3.28249
lowerneck 9.02329 -7.5631 -8.2688
upperneck -3.82242 -10.0663 24.8989
head -0.889884 -5.71198 9.36858
rclavicle -8.39865e-015 -1.53064e-014
rhumerus -43.8062 -12.1885 -61.5687
rradius 31.7712
rwrist -1.68366
rhand -7.08103 -52.7999
rfingers 7.12502
rthumb 18.7929 -81.9121
lclavicle -8.39865e-015 -1.53064e-014
lhumerus -27.908 33.8737 26.2555
lradius 65.8176
lwrist 207.426
lhand -10.6252 19.633
lfingers 7.12502
lthumb 15.3815 49.0409
rfemur -16.8148 -19.3551 15.325
rtibia 91.8535
rfoot -32.4688 -1.82362
rtoes -8.64413
lfemur -25.046 8.48038 -13.3049
ltibia 57.0367
lfoot -4.56378 -14.1582
ltoes 7.02308
362
root 10.528 17.1183 9.8156 -32.9009 2.65216 -9.26884
lowerback 2.2796 -0.087868 3.29271
upperback 4.30312 -0.236363 5.59961
thorax 3.17827 -0.109235 3.94961
lowerneck 9.17665 -7.30192 -7.22838
upperneck -3.07668 -9.75207 22.6713
head -0.93058 -5.47972 8.43864
rclavicle -1.17283e-014 9.54166e-015
rhumerus -43.1974 -11.5589 -60.8806
rradius 31.6123
rwrist -0.897837
rhand -5.3437 -53.2129
rfingers 7.12502
rthumb 20.4631 -82.1546
lclavicle -1.17283e-014 9.54166e-015
lhumerus -23.0887 31.1565 31.3276
lradius 64.7059
lwrist 204.961
lhand -12.2351 18.7411
lfingers 7.12502
lthumb 13.8305 48.2613
rfemur -17.7595 -18.0852 15.5241
rtibia 86.334
rfoot -33.1791 -3.65608
rtoes 1.63029
lfemur -22.336 7.67078 -13.3897
ltibia 58.756
lfoot -4.06584 -14.2654
ltoes 8.80366
363
root 10.5316 17.0285 10.0374 -36.1512 4.36356 -8.65181
lowerback 2.87215 -1.04334 1.35073
upperback 4.75556 -1.52501 5.54268
thorax 3.42379 -0.82707 4.9922
lowerneck 9.24488 -6.98025 -6.46858
upperneck -1.95292 -9.43797 20.704
head -0.802304 -5.23262 7.64694
rclavicle 1.78906e-014 -3.29983e-014
rhumerus -42.6697 -10.7897 -60.0899
rradius 31.408
rwrist 0.534851
rhand -3.01455 -52.5741
rfingers 7.12502
rthumb 22.7 -81.2589
lclavicle 1.78906e-014 -3.29983e-014
lhumerus -18.724 27.3641 35.8447
lradius 62.9783
lwrist 202.245
lhand -14.532 17.8734
lfingers 7.12502
lthumb 11.6161 47.5314
rfemur -18.0556 -16.701 14.1392
rtibia 79.9059
rfoot -35.1612 -4.2469
rtoes -5.7002
lfemur -19.0156 6.48334 -14.6613
ltibia 59.9836
lfoot -3.9053 -14.1917
ltoes 10.464
364
root 10.533 16.965 10.247 -38.7561 4.72123 -9.23272
lowerback 2.87888 -1.81681 1.13654
upperback 4.96101 -2.59416 5.87403
thorax 3.75045 -1.38784 5.46005
lowerneck 9.56148 -6.62165 -6.0397
upperneck -1.09972 -9.05124 19.2233
head -0.750286 -4.98869 7.09891
rclavicle 4.37326e-015 -3.02153e-014
rhumerus -42.1806 -10.5935 -58.9208
rradius 31.3515
rwrist 3.4591
rhand 0.909995 -51.6863
rfingers 7.12502
rthumb 26.4617 -79.8589
lclavicle 4.37326e-015 -3.02153e-014
lhumerus -14.5494 22.5797 39.8351
lradius 60.7068
lwrist 199.608
lhand -17.2949 17.3763
lfingers 7.12502
lthumb 8.9508 47.1664
rfemur -18.9195 -14.3083 15.0623
rtibia 72.6352
rfoot -34.8821 -7.95248
rtoes -14.8468
lfemur -16.1661 5.68214 -14.0698
ltibia 60.5404
lfoot -3.77138 -13.9579
ltoes 9.52457
365
root 10.543 16.9341 10.451 -40.9512 4.57375 -9.95712
lowerback 2.38789 -2.50116 1.47218
upperback 5.07788 -3.56627 6.21805
thorax 4.24534 -1.87945 5.60357
lowerneck 9.38557 -6.16334 -4.87282
upperneck 0.0822512 -8.4734 17.2642
head -0.582416 -4.60757 6.25371
rclavicle -3.97569e-014 5.56597e-014
rhumerus -41.5992 -10.0876 -58.2464
rradius 31.5624
rwrist 4.42686
rhand 2.67071 -50.9662
rfingers 7.12502
rthumb 28.1459 -78.8736
lclavicle -3.97569e-014 5.56597e-014
lhumerus -11.0641 16.0224 42.9669
lradius 58.3266
lwrist 197.47
lhand -18.7028 14.991
lfingers 7.12502
lthumb 7.59205 44.8347
rfemur -19.6021 -11.4242 16.2488
rtibia 64.6383
rfoot -36.7385 -10.4678
rtoes -19.5226
lfemur -13.4593 4.91223 -13.1243
ltibia 60.6663
lfoot -3.45174 -13.5404
ltoes 11.2364
366
root 10.585 17.1281 10.5536 -42.7925 3.92357 -10.5542
lowerback 1.53313 -3.14219 2.12185
upperback 5.10321 -4.50906 6.56849
thorax 4.82721 -2.3394 5.54311
lowerneck 8.5969 -5.53266 -4.02718
upperneck 1.88523 -7.76549 15.5401
head -0.101938 -4.12365 5.50838
rclavicle 5.24792e-014 -8.11041e-014
rhumerus -40.9126 -9.09734 -57.8857
rradius 32.2132
rwrist 4.35996
rhand 3.77884 -49.7816
rfingers 7.12502
rthumb 29.2045 -77.51
lclavicle 5.24792e-014 -8.11041e-014
lhumerus -7.01792 11.3669 46.1144
lradius 54.7689
lwrist 193.688
lhand -22.4547 14.9158
lfingers 7.12502
lthumb 3.96973 44.8586
rfemur -21.1644 -8.57695 17.579
rtibia 56.8242
rfoot -36.1384 -17.8687
rtoes -34.3456
lfemur -10.0507 4.30866 -12.0836
ltibia 59.4977
lfoot -2.85384 -12.8924
ltoes 15.2858
367
root 10.6168 17.1838 10.7165 -44.2958 3.02218 -10.7634
lowerback 0.503334 -3.70243 2.80929
upperback 4.97692 -5.35804 6.83574
thorax 5.32168 -2.74094 5.34825
lowerneck 7.75714 -4.71517 -3.44182
upperneck 3.74853 -6.8164 14.0841
head 0.420989 -3.53355 4.90262
rclavicle -3.18055e-014 1.43125e-014
rhumerus -40.4286 -7.77663 -57.5855
rradius 33.4542
rwrist 3.84489
rhand 5.13558 -48.3344
rfingers 7.12502
rthumb 30.4993 -75.8301
lclavicle -3.18055e-014 1.43125e-014
lhumerus -3.72538 6.10478 48.6005
lradius 51.2278
lwrist 190.1
lhand -25.5348 14.0588
lfingers 7.12502
lthumb 0.995071 44.0362
rfemur -22.047 -4.97964 18.3203
rtibia 48.2827
rfoot -35.9837 -20.9262
rtoes -37.66
lfemur -7.44657 4.17043 -11.196
ltibia 58.9937
lfoot -2.44598 -12.3603
ltoes 15.9036
368
root 10.6613 17.2553 10.873 -45.6415 2.4712 -10.0995
lowerback -0.420266 -4.16553 2.91078
upperback 4.61454 -6.02819 6.77744
thorax 5.49962 -3.06569 5.13721
lowerneck 6.36727 -4.19997 -2.37039
upperneck 6.30355 -6.24271 11.4132
head 1.40452 -3.11269 4.22178
rclavicle -1.03368e-014 -3.81667e-014
rhumerus -40.3607 -6.10326 -57.3082
rradius 35.0849
rwrist 2.77667
rhand 6.33263 -47.4543
rfingers 7.12502
rthumb 31.6402 -74.7317
lclavicle -1.03368e-014 -3.81667e-014
lhumerus -0.863757 0.154923 50.4335
lradius 47.9371
lwrist 185.873
lhand -29.5171 14.2757
lfingers 7.12502
lthumb -2.85106 44.2364
rfemur -23.4138 -1.98534 17.7826
rtibia 40.7045
rfoot -36.5458 -22.5452
rtoes -39.3544
lfemur -4.50689 4.38262 -11.3846
ltibia 57.9465
lfoot -1.87224 -11.6346
ltoes 16.1313
369
root 10.6931 17.1762 11.1505 -46.9372 2.11657 -8.60449
lowerback -1.45183 -4.5967 2.33817
upperback 4.38782 -6.64242 6.55635
thorax 5.93093 -3.38918 5.10521
lowerneck 5.19262 -3.45301 -1.54556
upperneck 8.21878 -5.29261 9.57592
head 2.07255 -2.5498 3.38633
rclavicle 9.38264e-014 -1.59028e-014
rhumerus -39.8391 -3.8424 -57.2836
rradius 36.9268
rwrist 1.21887
rhand 6.83129 -46.4241
rfingers 7.12502
rthumb 32.1151 -73.6069
lclavicle 9.38264e-014 -1.59028e-014
lhumerus 1.36607 -6.9623 51.2793
lradius 45.2018
lwrist 182.772
lhand -32.1604 14.6898
lfingers 7.12502
lthumb -5.40364 44.6009
rfemur -24.8273 1.39186 16.0988
rtibia 33.6091
rfoot -42.9342 -13.9454
rtoes -12.7506
lfemur -2.02152 4.9504 -12.284
ltibia 57.7615
lfoot -1.71759 -11.1496
ltoes 18.7831
370
root 10.7474 17.2761 11.2924 -48.0452 1.1132 -6.93208
lowerback -2.33112 -4.80559 2.33675
upperback 3.96413 -6.94484 6.46681
thorax 5.99481 -3.52943 4.92636
lowerneck 4.03282 -2.65826 -1.08687
upperneck 10.018 -4.27468 8.20448
head 2.75594 -1.97986 2.82917
rclavicle 2.06736e-014 -6.36111e-014
rhumerus -39.7208 -1.10218 -57.1689
rradius 39.1887
rwrist -0.602991
rhand 7.34255 -45.0508
rfingers 7.12502
rthumb 32.6017 -72.1342
lclavicle 2.06736e-014 -6.36111e-014
lhumerus 3.41816 -14.831 51.8157
lradius 43.3773
lwrist 180.708
lhand -34.7743 14.1163
lfingers 7.12502
lthumb -7.92697 43.9477
rfemur -27.9531 0.970178 15.925
rtibia 28.4245
rfoot -42.2848 -11.5271
rtoes -7.33578
lfemur 0.839932 6.14863 -12.7973
ltibia 56.7036
lfoot -1.30632 -10.4753
ltoes 20.3052
371
root 10.8028 17.3646 11.4116 -49.1028 -0.515313 -5.1471
lowerback -3.52633 -4.82818 2.81941
upperback 3.88093 -7.08689 6.57626
thorax 6.5611 -3.57164 4.66465
lowerneck 3.25582 -2.01131 -0.499091
upperneck 10.7181 -3.30893 6.49014
head 3.01681 -1.49083 2.15209
rclavicle 4.77083e-015 -1.74931e-014
rhumerus -39.0477 1.3858 -56.7907
rradius 41.5856
rwrist -1.97481
rhand 7.65503 -43.9712
rfingers 7.12502
rthumb 32.899 -70.9927
lclavicle 4.77083e-015 -1.74931e-014
lhumerus 6.00001 -22.5568 51.8946
lradius 42.3492
lwrist 178.775
lhand -38.4104 13.8701
lfingers 7.12502
lthumb -11.4351 43.5383
rfemur -31.399 -1.04069 17.6216
rtibia 24.6389
rfoot -41.856 -7.45184
rtoes -3.40383
lfemur 3.48734 7.81246 -12.7881
ltibia 55.7744
lfoot -0.525885 -9.62253
ltoes 21.0012
372
root 10.8516 17.4299 11.5113 -50.29 -2.29365 -3.04771
lowerback -4.03528 -4.87649 3.38314
upperback 3.66588 -7.21089 6.6329
thorax 6.57131 -3.60243 4.36512
lowerneck 2.91214 -1.45851 0.640682
upperneck 11.0357 -2.35446 3.92372
head 3.07266 -1.03696 1.11692
rclavicle -9.54166e-015 3.97569e-014
rhumerus -38.2523 4.3214 -56.6621
rradius 43.9974
rwrist -2.64408
rhand 6.60571 -43.579
rfingers 7.12502
rthumb 31.9003 -70.8049
lclavicle -9.54166e-015 3.97569e-014
lhumerus 8.08971 -30.4156 51.135
lradius 42.5751
lwrist 177.19
lhand -40.778 13.5162
lfingers 7.12502
lthumb -13.7177 43.0441
rfemur -35.2554 -2.36203 19.8995
rtibia 22.7901
rfoot -39.7971 -6.57982
rtoes -2.15625
lfemur 6.13276 9.81832 -12.7013
ltibia 54.7339
lfoot 0.821315 -8.57255
ltoes 22.6038
